<svg width="200" height="100" viewBox="0 0 200 100" fill="none" xmlns="http://www.w3.org/2000/svg">
<rect width="200" height="100" rx="8" fill="white"/>
<rect x="42" y="32" width="115" height="35" rx="5" fill="#3284DD"/>
<path d="M83.0795 48H82.0227C81.9602 47.696 81.8509 47.429 81.6946 47.1989C81.5412 46.9688 81.3537 46.7756 81.1321 46.6193C80.9134 46.4602 80.6705 46.3409 80.4034 46.2614C80.1364 46.1818 79.858 46.142 79.5682 46.142C79.0398 46.142 78.5611 46.2756 78.1321 46.5426C77.706 46.8097 77.3665 47.2031 77.1136 47.723C76.8636 48.2429 76.7386 48.8807 76.7386 49.6364C76.7386 50.392 76.8636 51.0298 77.1136 51.5497C77.3665 52.0696 77.706 52.4631 78.1321 52.7301C78.5611 52.9972 79.0398 53.1307 79.5682 53.1307C79.858 53.1307 80.1364 53.0909 80.4034 53.0114C80.6705 52.9318 80.9134 52.8139 81.1321 52.6577C81.3537 52.4986 81.5412 52.304 81.6946 52.0739C81.8509 51.8409 81.9602 51.5739 82.0227 51.2727H83.0795C83 51.7187 82.8551 52.1179 82.6449 52.4702C82.4347 52.8224 82.1733 53.1222 81.8608 53.3693C81.5483 53.6136 81.1974 53.7997 80.8082 53.9276C80.4219 54.0554 80.0085 54.1193 79.5682 54.1193C78.8239 54.1193 78.1619 53.9375 77.5824 53.5739C77.0028 53.2102 76.5469 52.6932 76.2145 52.0227C75.8821 51.3523 75.7159 50.5568 75.7159 49.6364C75.7159 48.7159 75.8821 47.9205 76.2145 47.25C76.5469 46.5795 77.0028 46.0625 77.5824 45.6989C78.1619 45.3352 78.8239 45.1534 79.5682 45.1534C80.0085 45.1534 80.4219 45.2173 80.8082 45.3452C81.1974 45.473 81.5483 45.6605 81.8608 45.9077C82.1733 46.152 82.4347 46.4503 82.6449 46.8026C82.8551 47.152 83 47.5511 83.0795 48ZM85.6566 45.2727V54H84.6509V45.2727H85.6566ZM87.4986 54V47.4545H88.5043V54H87.4986ZM88.0099 46.3636C87.8139 46.3636 87.6449 46.2969 87.5028 46.1634C87.3636 46.0298 87.294 45.8693 87.294 45.6818C87.294 45.4943 87.3636 45.3338 87.5028 45.2003C87.6449 45.0668 87.8139 45 88.0099 45C88.206 45 88.3736 45.0668 88.5128 45.2003C88.6548 45.3338 88.7259 45.4943 88.7259 45.6818C88.7259 45.8693 88.6548 46.0298 88.5128 46.1634C88.3736 46.2969 88.206 46.3636 88.0099 46.3636ZM93.0053 54.1364C92.3917 54.1364 91.8633 53.9915 91.4201 53.7017C90.9769 53.4119 90.636 53.0128 90.3974 52.5043C90.1587 51.9957 90.0394 51.4148 90.0394 50.7614C90.0394 50.0966 90.1616 49.5099 90.4059 49.0014C90.6531 48.4901 90.9968 48.0909 91.4371 47.804C91.8803 47.5142 92.3974 47.3693 92.9883 47.3693C93.4485 47.3693 93.8633 47.4545 94.2326 47.625C94.6019 47.7955 94.9045 48.0341 95.1403 48.3409C95.3761 48.6477 95.5224 49.0057 95.5792 49.4148H94.5735C94.4968 49.1165 94.3263 48.8523 94.0621 48.6222C93.8008 48.3892 93.4485 48.2727 93.0053 48.2727C92.6133 48.2727 92.2695 48.375 91.9741 48.5795C91.6815 48.7812 91.4528 49.0668 91.288 49.4361C91.1261 49.8026 91.0451 50.233 91.0451 50.7273C91.0451 51.233 91.1246 51.6733 91.2837 52.0483C91.4457 52.4233 91.6729 52.7145 91.9656 52.9219C92.261 53.1293 92.6076 53.233 93.0053 53.233C93.2667 53.233 93.5039 53.1875 93.717 53.0966C93.93 53.0057 94.1104 52.875 94.2582 52.7045C94.4059 52.5341 94.511 52.3295 94.5735 52.0909H95.5792C95.5224 52.4773 95.3817 52.8253 95.1573 53.1349C94.9357 53.4418 94.6417 53.6861 94.2752 53.8679C93.9116 54.0469 93.4883 54.1364 93.0053 54.1364ZM97.9869 51.6136L97.9698 50.3693H98.1744L101.038 47.4545H102.282L99.2312 50.5398H99.146L97.9869 51.6136ZM97.0494 54V45.2727H98.055V54H97.0494ZM101.208 54L98.6516 50.7614L99.3675 50.0625L102.487 54H101.208ZM107.088 45.2727H108.349L111.315 52.517H111.418L114.384 45.2727H115.645V54H114.656V47.3693H114.571L111.844 54H110.889L108.162 47.3693H108.077V54H107.088V45.2727ZM120.372 54.1364C119.741 54.1364 119.197 53.9972 118.74 53.7188C118.285 53.4375 117.934 53.0455 117.687 52.5426C117.443 52.0369 117.321 51.4489 117.321 50.7784C117.321 50.108 117.443 49.517 117.687 49.0057C117.934 48.4915 118.278 48.0909 118.718 47.804C119.162 47.5142 119.679 47.3693 120.27 47.3693C120.61 47.3693 120.947 47.4261 121.279 47.5398C121.612 47.6534 121.914 47.8381 122.187 48.0938C122.46 48.3466 122.677 48.6818 122.839 49.0994C123.001 49.517 123.082 50.0312 123.082 50.642V51.0682H118.037V50.1989H122.059C122.059 49.8295 121.985 49.5 121.838 49.2102C121.693 48.9205 121.485 48.6918 121.216 48.5241C120.949 48.3565 120.633 48.2727 120.27 48.2727C119.869 48.2727 119.522 48.3722 119.23 48.571C118.94 48.767 118.717 49.0227 118.561 49.3381C118.404 49.6534 118.326 49.9915 118.326 50.3523V50.9318C118.326 51.4261 118.412 51.8452 118.582 52.1889C118.755 52.5298 118.995 52.7898 119.302 52.9688C119.609 53.1449 119.966 53.233 120.372 53.233C120.636 53.233 120.875 53.196 121.088 53.1222C121.304 53.0455 121.49 52.9318 121.646 52.7812C121.802 52.6278 121.923 52.4375 122.008 52.2102L122.98 52.483C122.877 52.8125 122.706 53.1023 122.464 53.3523C122.223 53.5994 121.924 53.7926 121.569 53.9318C121.214 54.0682 120.815 54.1364 120.372 54.1364Z" fill="#061A30"/>
</svg>
