<svg width="200" height="100" viewBox="0 0 200 100" fill="none" xmlns="http://www.w3.org/2000/svg">
<rect width="200" height="100" rx="8" fill="white"/>
<rect x="42" y="25" width="115" height="35" rx="5" fill="#4D97E7"/>
<path d="M83.0795 41H82.0227C81.9602 40.696 81.8509 40.429 81.6946 40.1989C81.5412 39.9688 81.3537 39.7756 81.1321 39.6193C80.9134 39.4602 80.6705 39.3409 80.4034 39.2614C80.1364 39.1818 79.858 39.142 79.5682 39.142C79.0398 39.142 78.5611 39.2756 78.1321 39.5426C77.706 39.8097 77.3665 40.2031 77.1136 40.723C76.8636 41.2429 76.7386 41.8807 76.7386 42.6364C76.7386 43.392 76.8636 44.0298 77.1136 44.5497C77.3665 45.0696 77.706 45.4631 78.1321 45.7301C78.5611 45.9972 79.0398 46.1307 79.5682 46.1307C79.858 46.1307 80.1364 46.0909 80.4034 46.0114C80.6705 45.9318 80.9134 45.8139 81.1321 45.6577C81.3537 45.4986 81.5412 45.304 81.6946 45.0739C81.8509 44.8409 81.9602 44.5739 82.0227 44.2727H83.0795C83 44.7187 82.8551 45.1179 82.6449 45.4702C82.4347 45.8224 82.1733 46.1222 81.8608 46.3693C81.5483 46.6136 81.1974 46.7997 80.8082 46.9276C80.4219 47.0554 80.0085 47.1193 79.5682 47.1193C78.8239 47.1193 78.1619 46.9375 77.5824 46.5739C77.0028 46.2102 76.5469 45.6932 76.2145 45.0227C75.8821 44.3523 75.7159 43.5568 75.7159 42.6364C75.7159 41.7159 75.8821 40.9205 76.2145 40.25C76.5469 39.5795 77.0028 39.0625 77.5824 38.6989C78.1619 38.3352 78.8239 38.1534 79.5682 38.1534C80.0085 38.1534 80.4219 38.2173 80.8082 38.3452C81.1974 38.473 81.5483 38.6605 81.8608 38.9077C82.1733 39.152 82.4347 39.4503 82.6449 39.8026C82.8551 40.152 83 40.5511 83.0795 41ZM85.6566 38.2727V47H84.6509V38.2727H85.6566ZM87.4986 47V40.4545H88.5043V47H87.4986ZM88.0099 39.3636C87.8139 39.3636 87.6449 39.2969 87.5028 39.1634C87.3636 39.0298 87.294 38.8693 87.294 38.6818C87.294 38.4943 87.3636 38.3338 87.5028 38.2003C87.6449 38.0668 87.8139 38 88.0099 38C88.206 38 88.3736 38.0668 88.5128 38.2003C88.6548 38.3338 88.7259 38.4943 88.7259 38.6818C88.7259 38.8693 88.6548 39.0298 88.5128 39.1634C88.3736 39.2969 88.206 39.3636 88.0099 39.3636ZM93.0053 47.1364C92.3917 47.1364 91.8633 46.9915 91.4201 46.7017C90.9769 46.4119 90.636 46.0128 90.3974 45.5043C90.1587 44.9957 90.0394 44.4148 90.0394 43.7614C90.0394 43.0966 90.1616 42.5099 90.4059 42.0014C90.6531 41.4901 90.9968 41.0909 91.4371 40.804C91.8803 40.5142 92.3974 40.3693 92.9883 40.3693C93.4485 40.3693 93.8633 40.4545 94.2326 40.625C94.6019 40.7955 94.9045 41.0341 95.1403 41.3409C95.3761 41.6477 95.5224 42.0057 95.5792 42.4148H94.5735C94.4968 42.1165 94.3263 41.8523 94.0621 41.6222C93.8008 41.3892 93.4485 41.2727 93.0053 41.2727C92.6133 41.2727 92.2695 41.375 91.9741 41.5795C91.6815 41.7812 91.4528 42.0668 91.288 42.4361C91.1261 42.8026 91.0451 43.233 91.0451 43.7273C91.0451 44.233 91.1246 44.6733 91.2837 45.0483C91.4457 45.4233 91.6729 45.7145 91.9656 45.9219C92.261 46.1293 92.6076 46.233 93.0053 46.233C93.2667 46.233 93.5039 46.1875 93.717 46.0966C93.93 46.0057 94.1104 45.875 94.2582 45.7045C94.4059 45.5341 94.511 45.3295 94.5735 45.0909H95.5792C95.5224 45.4773 95.3817 45.8253 95.1573 46.1349C94.9357 46.4418 94.6417 46.6861 94.2752 46.8679C93.9116 47.0469 93.4883 47.1364 93.0053 47.1364ZM97.9869 44.6136L97.9698 43.3693H98.1744L101.038 40.4545H102.282L99.2312 43.5398H99.146L97.9869 44.6136ZM97.0494 47V38.2727H98.055V47H97.0494ZM101.208 47L98.6516 43.7614L99.3675 43.0625L102.487 47H101.208ZM107.088 38.2727H108.349L111.315 45.517H111.418L114.384 38.2727H115.645V47H114.656V40.3693H114.571L111.844 47H110.889L108.162 40.3693H108.077V47H107.088V38.2727ZM120.372 47.1364C119.741 47.1364 119.197 46.9972 118.74 46.7188C118.285 46.4375 117.934 46.0455 117.687 45.5426C117.443 45.0369 117.321 44.4489 117.321 43.7784C117.321 43.108 117.443 42.517 117.687 42.0057C117.934 41.4915 118.278 41.0909 118.718 40.804C119.162 40.5142 119.679 40.3693 120.27 40.3693C120.61 40.3693 120.947 40.4261 121.279 40.5398C121.612 40.6534 121.914 40.8381 122.187 41.0938C122.46 41.3466 122.677 41.6818 122.839 42.0994C123.001 42.517 123.082 43.0312 123.082 43.642V44.0682H118.037V43.1989H122.059C122.059 42.8295 121.985 42.5 121.838 42.2102C121.693 41.9205 121.485 41.6918 121.216 41.5241C120.949 41.3565 120.633 41.2727 120.27 41.2727C119.869 41.2727 119.522 41.3722 119.23 41.571C118.94 41.767 118.717 42.0227 118.561 42.3381C118.404 42.6534 118.326 42.9915 118.326 43.3523V43.9318C118.326 44.4261 118.412 44.8452 118.582 45.1889C118.755 45.5298 118.995 45.7898 119.302 45.9688C119.609 46.1449 119.966 46.233 120.372 46.233C120.636 46.233 120.875 46.196 121.088 46.1222C121.304 46.0455 121.49 45.9318 121.646 45.7812C121.802 45.6278 121.923 45.4375 122.008 45.2102L122.98 45.483C122.877 45.8125 122.706 46.1023 122.464 46.3523C122.223 46.5994 121.924 46.7926 121.569 46.9318C121.214 47.0682 120.815 47.1364 120.372 47.1364Z" fill="#061A30"/>
<path d="M43.8523 69.5455C43.8523 68.8295 43.9451 68.1714 44.1307 67.571C44.3182 66.9687 44.5852 66.4148 44.9318 65.9091H45.5227C45.3864 66.0966 45.2585 66.3277 45.1392 66.6023C45.0218 66.875 44.9186 67.1752 44.8295 67.5028C44.7405 67.8286 44.6705 68.1657 44.6193 68.5142C44.5701 68.8627 44.5455 69.2064 44.5455 69.5455C44.5455 69.9962 44.589 70.4536 44.6761 70.9176C44.7633 71.3816 44.8807 71.8125 45.0284 72.2102C45.1761 72.608 45.3409 72.9318 45.5227 73.1818H44.9318C44.5852 72.6761 44.3182 72.1231 44.1307 71.5227C43.9451 70.9205 43.8523 70.2614 43.8523 69.5455ZM47.1825 69.375V72H46.5121V66.1818H47.1825V68.3182H47.2393C47.3416 68.0928 47.495 67.9138 47.6996 67.7812C47.906 67.6468 48.1806 67.5795 48.5234 67.5795C48.8208 67.5795 49.0812 67.6392 49.3047 67.7585C49.5282 67.8759 49.7015 68.0568 49.8246 68.3011C49.9496 68.5436 50.0121 68.8523 50.0121 69.2273V72H49.3416V69.2727C49.3416 68.9261 49.2517 68.6581 49.0717 68.4688C48.8937 68.2775 48.6465 68.1818 48.3303 68.1818C48.1106 68.1818 47.9136 68.2282 47.7393 68.321C47.567 68.4138 47.4306 68.5492 47.3303 68.7273C47.2318 68.9053 47.1825 69.1212 47.1825 69.375ZM51.2386 72V67.6364H51.9091V72H51.2386ZM51.5795 66.9091C51.4489 66.9091 51.3362 66.8646 51.2415 66.7756C51.1487 66.6866 51.1023 66.5795 51.1023 66.4545C51.1023 66.3295 51.1487 66.2225 51.2415 66.1335C51.3362 66.0445 51.4489 66 51.5795 66C51.7102 66 51.822 66.0445 51.9148 66.1335C52.0095 66.2225 52.0568 66.3295 52.0568 66.4545C52.0568 66.5795 52.0095 66.6866 51.9148 66.7756C51.822 66.8646 51.7102 66.9091 51.5795 66.9091ZM54.8984 73.7273C54.5746 73.7273 54.2962 73.6856 54.0632 73.6023C53.8303 73.5208 53.6361 73.4129 53.4808 73.2784C53.3274 73.1458 53.2053 73.0038 53.1143 72.8523L53.6484 72.4773C53.709 72.5568 53.7857 72.6477 53.8786 72.75C53.9714 72.8542 54.0982 72.9441 54.2592 73.0199C54.4221 73.0975 54.6352 73.1364 54.8984 73.1364C55.2507 73.1364 55.5414 73.0511 55.7706 72.8807C55.9998 72.7102 56.1143 72.4432 56.1143 72.0795V71.1932H56.0575C56.0083 71.2727 55.9382 71.3712 55.8473 71.4886C55.7583 71.6042 55.6295 71.7074 55.4609 71.7983C55.2943 71.8873 55.0689 71.9318 54.7848 71.9318C54.4325 71.9318 54.1162 71.8485 53.8359 71.6818C53.5575 71.5152 53.3369 71.2727 53.174 70.9545C53.013 70.6364 52.9325 70.25 52.9325 69.7955C52.9325 69.3485 53.0111 68.9593 53.1683 68.6278C53.3255 68.2945 53.5443 68.0369 53.8246 67.8551C54.1049 67.6714 54.4287 67.5795 54.7962 67.5795C55.0803 67.5795 55.3056 67.6269 55.4723 67.7216C55.6409 67.8144 55.7696 67.9205 55.8587 68.0398C55.9496 68.1572 56.0196 68.2538 56.0689 68.3295H56.1371V67.6364H56.7848V72.125C56.7848 72.5 56.6996 72.8049 56.5291 73.0398C56.3606 73.2765 56.1333 73.4498 55.8473 73.5597C55.5632 73.6714 55.2469 73.7273 54.8984 73.7273ZM54.8757 71.3295C55.1446 71.3295 55.3719 71.268 55.5575 71.1449C55.7431 71.0218 55.8842 70.8447 55.9808 70.6136C56.0774 70.3826 56.1257 70.1061 56.1257 69.7841C56.1257 69.4697 56.0784 69.1922 55.9837 68.9517C55.889 68.7112 55.7488 68.5227 55.5632 68.3864C55.3776 68.25 55.1484 68.1818 54.8757 68.1818C54.5916 68.1818 54.3549 68.2538 54.1655 68.3977C53.978 68.5417 53.8369 68.7348 53.7422 68.9773C53.6494 69.2197 53.603 69.4886 53.603 69.7841C53.603 70.0871 53.6503 70.3551 53.745 70.5881C53.8416 70.8191 53.9837 71.0009 54.1712 71.1335C54.3606 71.2642 54.5954 71.3295 54.8757 71.3295ZM58.6825 69.375V72H58.0121V66.1818H58.6825V68.3182H58.7393C58.8416 68.0928 58.995 67.9138 59.1996 67.7812C59.406 67.6468 59.6806 67.5795 60.0234 67.5795C60.3208 67.5795 60.5812 67.6392 60.8047 67.7585C61.0282 67.8759 61.2015 68.0568 61.3246 68.3011C61.4496 68.5436 61.5121 68.8523 61.5121 69.2273V72H60.8416V69.2727C60.8416 68.9261 60.7517 68.6581 60.5717 68.4688C60.3937 68.2775 60.1465 68.1818 59.8303 68.1818C59.6106 68.1818 59.4136 68.2282 59.2393 68.321C59.067 68.4138 58.9306 68.5492 58.8303 68.7273C58.7318 68.9053 58.6825 69.1212 58.6825 69.375ZM63.4091 66.1818V72H62.7386V66.1818H63.4091ZM65.0689 73.6364C64.9553 73.6364 64.8539 73.6269 64.7649 73.608C64.6759 73.5909 64.6143 73.5739 64.5803 73.5568L64.7507 72.9659C64.9136 73.0076 65.0575 73.0227 65.1825 73.0114C65.3075 73 65.4183 72.9441 65.5149 72.8438C65.6134 72.7453 65.7034 72.5852 65.7848 72.3636L65.9098 72.0227L64.2962 67.6364H65.0234L66.228 71.1136H66.2734L67.478 67.6364H68.2053L66.353 72.6364C66.2696 72.8617 66.1664 73.0483 66.0433 73.196C65.9202 73.3456 65.7772 73.4564 65.6143 73.5284C65.4534 73.6004 65.2715 73.6364 65.0689 73.6364ZM72.6243 72.1023C72.3478 72.1023 72.0968 72.0502 71.8714 71.946C71.6461 71.84 71.4671 71.6875 71.3345 71.4886C71.2019 71.2879 71.1357 71.0455 71.1357 70.7614C71.1357 70.5114 71.1849 70.3087 71.2834 70.1534C71.3819 69.9962 71.5135 69.8731 71.6783 69.7841C71.843 69.6951 72.0249 69.6288 72.2237 69.5852C72.4245 69.5398 72.6262 69.5038 72.8288 69.4773C73.094 69.4432 73.3089 69.4176 73.4737 69.4006C73.6404 69.3816 73.7616 69.3504 73.8374 69.3068C73.915 69.2633 73.9538 69.1875 73.9538 69.0795V69.0568C73.9538 68.7765 73.8771 68.5587 73.7237 68.4034C73.5722 68.2481 73.3421 68.1705 73.0334 68.1705C72.7133 68.1705 72.4624 68.2405 72.2805 68.3807C72.0987 68.5208 71.9709 68.6705 71.897 68.8295L71.2607 68.6023C71.3743 68.3371 71.5258 68.1307 71.7152 67.983C71.9065 67.8333 72.1148 67.7292 72.3402 67.6705C72.5675 67.6098 72.791 67.5795 73.0107 67.5795C73.1508 67.5795 73.3118 67.5966 73.4936 67.6307C73.6773 67.6629 73.8544 67.7301 74.0249 67.8324C74.1972 67.9347 74.3402 68.089 74.4538 68.2955C74.5675 68.5019 74.6243 68.7784 74.6243 69.125V72H73.9538V71.4091H73.9197C73.8743 71.5038 73.7985 71.6051 73.6925 71.7131C73.5864 71.821 73.4453 71.9129 73.2692 71.9886C73.093 72.0644 72.8781 72.1023 72.6243 72.1023ZM72.7266 71.5C72.9917 71.5 73.2152 71.4479 73.397 71.3438C73.5807 71.2396 73.719 71.1051 73.8118 70.9403C73.9065 70.7756 73.9538 70.6023 73.9538 70.4205V69.8068C73.9254 69.8409 73.8629 69.8722 73.7663 69.9006C73.6716 69.9271 73.5618 69.9508 73.4368 69.9716C73.3137 69.9905 73.1934 70.0076 73.076 70.0227C72.9605 70.036 72.8667 70.0473 72.7947 70.0568C72.6205 70.0795 72.4576 70.1165 72.3061 70.1676C72.1565 70.2169 72.0353 70.2917 71.9425 70.392C71.8516 70.4905 71.8061 70.625 71.8061 70.7955C71.8061 71.0284 71.8923 71.2045 72.0646 71.3239C72.2389 71.4413 72.4595 71.5 72.7266 71.5ZM77.4957 72.0909C77.1321 72.0909 76.8111 71.9991 76.5327 71.8153C76.2543 71.6297 76.0365 71.3684 75.8793 71.0312C75.7221 70.6922 75.6435 70.2917 75.6435 69.8295C75.6435 69.3712 75.7221 68.9735 75.8793 68.6364C76.0365 68.2992 76.2552 68.0388 76.5355 67.8551C76.8158 67.6714 77.1397 67.5795 77.5071 67.5795C77.7912 67.5795 78.0156 67.6269 78.1804 67.7216C78.3471 67.8144 78.474 67.9205 78.5611 68.0398C78.6501 68.1572 78.7192 68.2538 78.7685 68.3295H78.8253V66.1818H79.4957V72H78.848V71.3295H78.7685C78.7192 71.4091 78.6491 71.5095 78.5582 71.6307C78.4673 71.75 78.3376 71.857 78.169 71.9517C78.0005 72.0445 77.776 72.0909 77.4957 72.0909ZM77.5866 71.4886C77.8556 71.4886 78.0829 71.4186 78.2685 71.2784C78.4541 71.1364 78.5952 70.9403 78.6918 70.6903C78.7884 70.4384 78.8366 70.1477 78.8366 69.8182C78.8366 69.4924 78.7893 69.2074 78.6946 68.9631C78.5999 68.7169 78.4598 68.5256 78.2741 68.3892C78.0885 68.2509 77.8594 68.1818 77.5866 68.1818C77.3026 68.1818 77.0658 68.2547 76.8764 68.4006C76.6889 68.5445 76.5478 68.7405 76.4531 68.9886C76.3603 69.2348 76.3139 69.5114 76.3139 69.8182C76.3139 70.1288 76.3613 70.411 76.456 70.6648C76.5526 70.9167 76.6946 71.1174 76.8821 71.267C77.0715 71.4148 77.3063 71.4886 77.5866 71.4886ZM84.3849 67.6364L82.7713 72H82.0895L80.4759 67.6364H81.2031L82.4077 71.1136H82.4531L83.6577 67.6364H84.3849ZM86.4212 72.1023C86.1446 72.1023 85.8937 72.0502 85.6683 71.946C85.4429 71.84 85.264 71.6875 85.1314 71.4886C84.9988 71.2879 84.9325 71.0455 84.9325 70.7614C84.9325 70.5114 84.9818 70.3087 85.0803 70.1534C85.1787 69.9962 85.3104 69.8731 85.4751 69.7841C85.6399 69.6951 85.8217 69.6288 86.0206 69.5852C86.2214 69.5398 86.4231 69.5038 86.6257 69.4773C86.8909 69.4432 87.1058 69.4176 87.2706 69.4006C87.4373 69.3816 87.5585 69.3504 87.6342 69.3068C87.7119 69.2633 87.7507 69.1875 87.7507 69.0795V69.0568C87.7507 68.7765 87.674 68.5587 87.5206 68.4034C87.3691 68.2481 87.139 68.1705 86.8303 68.1705C86.5102 68.1705 86.2592 68.2405 86.0774 68.3807C85.8956 68.5208 85.7678 68.6705 85.6939 68.8295L85.0575 68.6023C85.1712 68.3371 85.3227 68.1307 85.5121 67.983C85.7034 67.8333 85.9117 67.7292 86.1371 67.6705C86.3643 67.6098 86.5878 67.5795 86.8075 67.5795C86.9477 67.5795 87.1087 67.5966 87.2905 67.6307C87.4742 67.6629 87.6513 67.7301 87.8217 67.8324C87.9941 67.9347 88.1371 68.089 88.2507 68.2955C88.3643 68.5019 88.4212 68.7784 88.4212 69.125V72H87.7507V71.4091H87.7166C87.6712 71.5038 87.5954 71.6051 87.4893 71.7131C87.3833 71.821 87.2422 71.9129 87.0661 71.9886C86.8899 72.0644 86.675 72.1023 86.4212 72.1023ZM86.5234 71.5C86.7886 71.5 87.0121 71.4479 87.1939 71.3438C87.3776 71.2396 87.5159 71.1051 87.6087 70.9403C87.7034 70.7756 87.7507 70.6023 87.7507 70.4205V69.8068C87.7223 69.8409 87.6598 69.8722 87.5632 69.9006C87.4685 69.9271 87.3587 69.9508 87.2337 69.9716C87.1106 69.9905 86.9903 70.0076 86.8729 70.0227C86.7573 70.036 86.6636 70.0473 86.5916 70.0568C86.4174 70.0795 86.2545 70.1165 86.103 70.1676C85.9534 70.2169 85.8321 70.2917 85.7393 70.392C85.6484 70.4905 85.603 70.625 85.603 70.7955C85.603 71.0284 85.6892 71.2045 85.8615 71.3239C86.0357 71.4413 86.2564 71.5 86.5234 71.5ZM90.3153 69.375V72H89.6449V67.6364H90.2926V68.3182H90.3494C90.4517 68.0966 90.607 67.9186 90.8153 67.7841C91.0237 67.6477 91.2926 67.5795 91.6222 67.5795C91.9176 67.5795 92.1761 67.6402 92.3977 67.7614C92.6193 67.8807 92.7917 68.0625 92.9148 68.3068C93.0379 68.5492 93.0994 68.8561 93.0994 69.2273V72H92.429V69.2727C92.429 68.9299 92.34 68.6629 92.1619 68.4716C91.9839 68.2784 91.7396 68.1818 91.429 68.1818C91.215 68.1818 91.0237 68.2282 90.8551 68.321C90.6884 68.4138 90.5568 68.5492 90.4602 68.7273C90.3636 68.9053 90.3153 69.1212 90.3153 69.375ZM96.0973 72.0909C95.6882 72.0909 95.3359 71.9943 95.0405 71.8011C94.745 71.608 94.5178 71.3419 94.3587 71.0028C94.1996 70.6638 94.12 70.2765 94.12 69.8409C94.12 69.3977 94.2015 69.0066 94.3643 68.6676C94.5291 68.3267 94.7583 68.0606 95.0518 67.8693C95.3473 67.6761 95.692 67.5795 96.0859 67.5795C96.3928 67.5795 96.6693 67.6364 96.9155 67.75C97.1617 67.8636 97.3634 68.0227 97.5206 68.2273C97.6778 68.4318 97.7753 68.6705 97.8132 68.9432H97.1428C97.0916 68.7443 96.978 68.5682 96.8018 68.4148C96.6276 68.2595 96.3928 68.1818 96.0973 68.1818C95.8359 68.1818 95.6068 68.25 95.4098 68.3864C95.2147 68.5208 95.0623 68.7112 94.9524 68.9574C94.8445 69.2017 94.7905 69.4886 94.7905 69.8182C94.7905 70.1553 94.8435 70.4489 94.9496 70.6989C95.0575 70.9489 95.209 71.143 95.4041 71.2812C95.6011 71.4195 95.8321 71.4886 96.0973 71.4886C96.2715 71.4886 96.4297 71.4583 96.5717 71.3977C96.7138 71.3371 96.834 71.25 96.9325 71.1364C97.031 71.0227 97.1011 70.8864 97.1428 70.7273H97.8132C97.7753 70.9848 97.6816 71.2169 97.532 71.4233C97.3842 71.6278 97.1882 71.7907 96.9439 71.9119C96.7015 72.0312 96.4193 72.0909 96.0973 72.0909ZM100.623 72.0909C100.202 72.0909 99.8397 71.9981 99.5348 71.8125C99.2318 71.625 98.9979 71.3636 98.8331 71.0284C98.6702 70.6913 98.5888 70.2992 98.5888 69.8523C98.5888 69.4053 98.6702 69.0114 98.8331 68.6705C98.9979 68.3277 99.227 68.0606 99.5206 67.8693C99.8161 67.6761 100.161 67.5795 100.555 67.5795C100.782 67.5795 101.006 67.6174 101.228 67.6932C101.45 67.7689 101.651 67.892 101.833 68.0625C102.015 68.2311 102.16 68.4545 102.268 68.733C102.376 69.0114 102.43 69.3542 102.43 69.7614V70.0455H99.0661V69.4659H101.748C101.748 69.2197 101.699 69 101.6 68.8068C101.504 68.6136 101.365 68.4612 101.185 68.3494C101.007 68.2377 100.797 68.1818 100.555 68.1818C100.288 68.1818 100.057 68.2481 99.8615 68.3807C99.6683 68.5114 99.5196 68.6818 99.4155 68.892C99.3113 69.1023 99.2592 69.3277 99.2592 69.5682V69.9545C99.2592 70.2841 99.3161 70.5634 99.4297 70.7926C99.5452 71.0199 99.7053 71.1932 99.9098 71.3125C100.114 71.4299 100.352 71.4886 100.623 71.4886C100.799 71.4886 100.958 71.464 101.1 71.4148C101.244 71.3636 101.368 71.2879 101.472 71.1875C101.576 71.0852 101.657 70.9583 101.714 70.8068L102.362 70.9886C102.293 71.2083 102.179 71.4015 102.018 71.5682C101.857 71.733 101.658 71.8617 101.421 71.9545C101.184 72.0455 100.918 72.0909 100.623 72.0909ZM105.097 72.0909C104.734 72.0909 104.413 71.9991 104.134 71.8153C103.856 71.6297 103.638 71.3684 103.481 71.0312C103.324 70.6922 103.245 70.2917 103.245 69.8295C103.245 69.3712 103.324 68.9735 103.481 68.6364C103.638 68.2992 103.857 68.0388 104.137 67.8551C104.417 67.6714 104.741 67.5795 105.109 67.5795C105.393 67.5795 105.617 67.6269 105.782 67.7216C105.949 67.8144 106.076 67.9205 106.163 68.0398C106.252 68.1572 106.321 68.2538 106.37 68.3295H106.427V66.1818H107.097V72H106.45V71.3295H106.37C106.321 71.4091 106.251 71.5095 106.16 71.6307C106.069 71.75 105.939 71.857 105.771 71.9517C105.602 72.0445 105.378 72.0909 105.097 72.0909ZM105.188 71.4886C105.457 71.4886 105.684 71.4186 105.87 71.2784C106.056 71.1364 106.197 70.9403 106.293 70.6903C106.39 70.4384 106.438 70.1477 106.438 69.8182C106.438 69.4924 106.391 69.2074 106.296 68.9631C106.201 68.7169 106.061 68.5256 105.876 68.3892C105.69 68.2509 105.461 68.1818 105.188 68.1818C104.904 68.1818 104.667 68.2547 104.478 68.4006C104.29 68.5445 104.149 68.7405 104.055 68.9886C103.962 69.2348 103.915 69.5114 103.915 69.8182C103.915 70.1288 103.963 70.411 104.058 70.6648C104.154 70.9167 104.296 71.1174 104.484 71.267C104.673 71.4148 104.908 71.4886 105.188 71.4886ZM111.339 69.375V72H110.668V66.1818H111.339V68.3182H111.396C111.498 68.0928 111.651 67.9138 111.856 67.7812C112.062 67.6468 112.337 67.5795 112.68 67.5795C112.977 67.5795 113.237 67.6392 113.461 67.7585C113.684 67.8759 113.858 68.0568 113.981 68.3011C114.106 68.5436 114.168 68.8523 114.168 69.2273V72H113.498V69.2727C113.498 68.9261 113.408 68.6581 113.228 68.4688C113.05 68.2775 112.803 68.1818 112.487 68.1818C112.267 68.1818 112.07 68.2282 111.896 68.321C111.723 68.4138 111.587 68.5492 111.487 68.7273C111.388 68.9053 111.339 69.1212 111.339 69.375ZM117.168 72.0909C116.774 72.0909 116.428 71.9972 116.131 71.8097C115.835 71.6222 115.604 71.3598 115.438 71.0227C115.273 70.6856 115.19 70.2917 115.19 69.8409C115.19 69.3864 115.273 68.9896 115.438 68.6506C115.604 68.3116 115.835 68.0483 116.131 67.8608C116.428 67.6733 116.774 67.5795 117.168 67.5795C117.562 67.5795 117.906 67.6733 118.202 67.8608C118.499 68.0483 118.73 68.3116 118.895 68.6506C119.062 68.9896 119.145 69.3864 119.145 69.8409C119.145 70.2917 119.062 70.6856 118.895 71.0227C118.73 71.3598 118.499 71.6222 118.202 71.8097C117.906 71.9972 117.562 72.0909 117.168 72.0909ZM117.168 71.4886C117.467 71.4886 117.713 71.4119 117.906 71.2585C118.099 71.1051 118.242 70.9034 118.335 70.6534C118.428 70.4034 118.474 70.1326 118.474 69.8409C118.474 69.5492 118.428 69.2775 118.335 69.0256C118.242 68.7737 118.099 68.5701 117.906 68.4148C117.713 68.2595 117.467 68.1818 117.168 68.1818C116.868 68.1818 116.622 68.2595 116.429 68.4148C116.236 68.5701 116.093 68.7737 116 69.0256C115.907 69.2775 115.861 69.5492 115.861 69.8409C115.861 70.1326 115.907 70.4034 116 70.6534C116.093 70.9034 116.236 71.1051 116.429 71.2585C116.622 71.4119 116.868 71.4886 117.168 71.4886ZM123.58 67.6364L121.967 72H121.285L119.671 67.6364H120.398L121.603 71.1136H121.648L122.853 67.6364H123.58ZM126.138 72.0909C125.718 72.0909 125.355 71.9981 125.05 71.8125C124.747 71.625 124.513 71.3636 124.349 71.0284C124.186 70.6913 124.104 70.2992 124.104 69.8523C124.104 69.4053 124.186 69.0114 124.349 68.6705C124.513 68.3277 124.743 68.0606 125.036 67.8693C125.332 67.6761 125.676 67.5795 126.07 67.5795C126.298 67.5795 126.522 67.6174 126.744 67.6932C126.965 67.7689 127.167 67.892 127.349 68.0625C127.531 68.2311 127.675 68.4545 127.783 68.733C127.891 69.0114 127.945 69.3542 127.945 69.7614V70.0455H124.582V69.4659H127.263C127.263 69.2197 127.214 69 127.116 68.8068C127.019 68.6136 126.881 68.4612 126.701 68.3494C126.523 68.2377 126.313 68.1818 126.07 68.1818C125.803 68.1818 125.572 68.2481 125.377 68.3807C125.184 68.5114 125.035 68.6818 124.931 68.892C124.827 69.1023 124.775 69.3277 124.775 69.5682V69.9545C124.775 70.2841 124.832 70.5634 124.945 70.7926C125.061 71.0199 125.221 71.1932 125.425 71.3125C125.63 71.4299 125.868 71.4886 126.138 71.4886C126.315 71.4886 126.474 71.464 126.616 71.4148C126.76 71.3636 126.884 71.2879 126.988 71.1875C127.092 71.0852 127.173 70.9583 127.229 70.8068L127.877 70.9886C127.809 71.2083 127.694 71.4015 127.533 71.5682C127.372 71.733 127.174 71.8617 126.937 71.9545C126.7 72.0455 126.434 72.0909 126.138 72.0909ZM128.965 72V67.6364H129.613V68.2955H129.658C129.738 68.0795 129.882 67.9044 130.09 67.7699C130.299 67.6354 130.533 67.5682 130.795 67.5682C130.844 67.5682 130.906 67.5691 130.979 67.571C131.053 67.5729 131.109 67.5758 131.147 67.5795V68.2614C131.124 68.2557 131.072 68.2472 130.991 68.2358C130.911 68.2225 130.827 68.2159 130.738 68.2159C130.526 68.2159 130.336 68.2604 130.17 68.3494C130.005 68.4366 129.874 68.5578 129.778 68.7131C129.683 68.8665 129.636 69.0417 129.636 69.2386V72H128.965ZM137.283 68.6136L136.68 68.7841C136.643 68.6837 136.587 68.5862 136.513 68.4915C136.441 68.3949 136.342 68.3153 136.217 68.2528C136.092 68.1903 135.932 68.1591 135.737 68.1591C135.47 68.1591 135.248 68.2206 135.07 68.3438C134.893 68.465 134.805 68.6193 134.805 68.8068C134.805 68.9735 134.866 69.1051 134.987 69.2017C135.108 69.2983 135.298 69.3788 135.555 69.4432L136.203 69.6023C136.593 69.697 136.884 69.8419 137.075 70.0369C137.267 70.2301 137.362 70.4792 137.362 70.7841C137.362 71.0341 137.29 71.2576 137.146 71.4545C137.004 71.6515 136.805 71.8068 136.55 71.9205C136.294 72.0341 135.997 72.0909 135.658 72.0909C135.213 72.0909 134.844 71.9943 134.553 71.8011C134.261 71.608 134.076 71.3258 133.999 70.9545L134.635 70.7955C134.696 71.0303 134.81 71.2064 134.979 71.3239C135.149 71.4413 135.372 71.5 135.646 71.5C135.959 71.5 136.207 71.4337 136.391 71.3011C136.576 71.1667 136.669 71.0057 136.669 70.8182C136.669 70.6667 136.616 70.5398 136.51 70.4375C136.404 70.3333 136.241 70.2557 136.021 70.2045L135.294 70.0341C134.894 69.9394 134.601 69.7926 134.413 69.5938C134.228 69.393 134.135 69.142 134.135 68.8409C134.135 68.5947 134.204 68.3769 134.342 68.1875C134.482 67.9981 134.673 67.8494 134.913 67.7415C135.156 67.6335 135.43 67.5795 135.737 67.5795C136.169 67.5795 136.508 67.6742 136.754 67.8636C137.002 68.053 137.179 68.303 137.283 68.6136ZM140.269 67.6364V68.2045H138.008V67.6364H140.269ZM138.667 66.5909H139.337V70.75C139.337 70.9394 139.365 71.0814 139.42 71.1761C139.477 71.2689 139.549 71.3314 139.636 71.3636C139.725 71.3939 139.818 71.4091 139.917 71.4091C139.991 71.4091 140.051 71.4053 140.099 71.3977C140.146 71.3883 140.184 71.3807 140.212 71.375L140.349 71.9773C140.303 71.9943 140.24 72.0114 140.158 72.0284C140.077 72.0473 139.974 72.0568 139.849 72.0568C139.659 72.0568 139.474 72.0161 139.292 71.9347C139.112 71.8532 138.962 71.7292 138.843 71.5625C138.726 71.3958 138.667 71.1856 138.667 70.9318V66.5909ZM142.562 72.1023C142.285 72.1023 142.034 72.0502 141.809 71.946C141.584 71.84 141.405 71.6875 141.272 71.4886C141.139 71.2879 141.073 71.0455 141.073 70.7614C141.073 70.5114 141.122 70.3087 141.221 70.1534C141.319 69.9962 141.451 69.8731 141.616 69.7841C141.781 69.6951 141.962 69.6288 142.161 69.5852C142.362 69.5398 142.564 69.5038 142.766 69.4773C143.031 69.4432 143.246 69.4176 143.411 69.4006C143.578 69.3816 143.699 69.3504 143.775 69.3068C143.853 69.2633 143.891 69.1875 143.891 69.0795V69.0568C143.891 68.7765 143.815 68.5587 143.661 68.4034C143.51 68.2481 143.28 68.1705 142.971 68.1705C142.651 68.1705 142.4 68.2405 142.218 68.3807C142.036 68.5208 141.908 68.6705 141.835 68.8295L141.198 68.6023C141.312 68.3371 141.463 68.1307 141.653 67.983C141.844 67.8333 142.052 67.7292 142.278 67.6705C142.505 67.6098 142.728 67.5795 142.948 67.5795C143.088 67.5795 143.249 67.5966 143.431 67.6307C143.615 67.6629 143.792 67.7301 143.962 67.8324C144.135 67.9347 144.278 68.089 144.391 68.2955C144.505 68.5019 144.562 68.7784 144.562 69.125V72H143.891V71.4091H143.857C143.812 71.5038 143.736 71.6051 143.63 71.7131C143.524 71.821 143.383 71.9129 143.207 71.9886C143.031 72.0644 142.816 72.1023 142.562 72.1023ZM142.664 71.5C142.929 71.5 143.153 71.4479 143.335 71.3438C143.518 71.2396 143.656 71.1051 143.749 70.9403C143.844 70.7756 143.891 70.6023 143.891 70.4205V69.8068C143.863 69.8409 143.8 69.8722 143.704 69.9006C143.609 69.9271 143.499 69.9508 143.374 69.9716C143.251 69.9905 143.131 70.0076 143.013 70.0227C142.898 70.036 142.804 70.0473 142.732 70.0568C142.558 70.0795 142.395 70.1165 142.244 70.1676C142.094 70.2169 141.973 70.2917 141.88 70.392C141.789 70.4905 141.744 70.625 141.744 70.7955C141.744 71.0284 141.83 71.2045 142.002 71.3239C142.176 71.4413 142.397 71.5 142.664 71.5ZM147.683 67.6364V68.2045H145.422V67.6364H147.683ZM146.081 66.5909H146.751V70.75C146.751 70.9394 146.779 71.0814 146.834 71.1761C146.891 71.2689 146.963 71.3314 147.05 71.3636C147.139 71.3939 147.232 71.4091 147.331 71.4091C147.405 71.4091 147.465 71.4053 147.513 71.3977C147.56 71.3883 147.598 71.3807 147.626 71.375L147.763 71.9773C147.717 71.9943 147.654 72.0114 147.572 72.0284C147.491 72.0473 147.388 72.0568 147.263 72.0568C147.073 72.0568 146.888 72.0161 146.706 71.9347C146.526 71.8532 146.376 71.7292 146.257 71.5625C146.14 71.3958 146.081 71.1856 146.081 70.9318V66.5909ZM150.474 72.0909C150.054 72.0909 149.691 71.9981 149.386 71.8125C149.083 71.625 148.849 71.3636 148.685 71.0284C148.522 70.6913 148.44 70.2992 148.44 69.8523C148.44 69.4053 148.522 69.0114 148.685 68.6705C148.849 68.3277 149.079 68.0606 149.372 67.8693C149.668 67.6761 150.012 67.5795 150.406 67.5795C150.634 67.5795 150.858 67.6174 151.08 67.6932C151.301 67.7689 151.503 67.892 151.685 68.0625C151.866 68.2311 152.011 68.4545 152.119 68.733C152.227 69.0114 152.281 69.3542 152.281 69.7614V70.0455H148.918V69.4659H151.599C151.599 69.2197 151.55 69 151.452 68.8068C151.355 68.6136 151.217 68.4612 151.037 68.3494C150.859 68.2377 150.649 68.1818 150.406 68.1818C150.139 68.1818 149.908 68.2481 149.713 68.3807C149.52 68.5114 149.371 68.6818 149.267 68.892C149.163 69.1023 149.111 69.3277 149.111 69.5682V69.9545C149.111 70.2841 149.168 70.5634 149.281 70.7926C149.397 71.0199 149.557 71.1932 149.761 71.3125C149.966 71.4299 150.204 71.4886 150.474 71.4886C150.651 71.4886 150.81 71.464 150.952 71.4148C151.096 71.3636 151.22 71.2879 151.324 71.1875C151.428 71.0852 151.509 70.9583 151.565 70.8068L152.213 70.9886C152.145 71.2083 152.03 71.4015 151.869 71.5682C151.708 71.733 151.509 71.8617 151.273 71.9545C151.036 72.0455 150.77 72.0909 150.474 72.0909ZM154.733 69.5455C154.733 70.2614 154.639 70.9205 154.452 71.5227C154.266 72.1231 154 72.6761 153.653 73.1818H153.062C153.199 72.9943 153.326 72.7633 153.443 72.4886C153.563 72.2159 153.667 71.9167 153.756 71.5909C153.845 71.2633 153.914 70.9252 153.963 70.5767C154.014 70.2263 154.04 69.8826 154.04 69.5455C154.04 69.0947 153.996 68.6373 153.909 68.1733C153.822 67.7093 153.705 67.2784 153.557 66.8807C153.409 66.483 153.244 66.1591 153.062 65.9091H153.653C154 66.4148 154.266 66.9687 154.452 67.571C154.639 68.1714 154.733 68.8295 154.733 69.5455Z" fill="#696969"/>
</svg>
